<svg xmlns="http://www.w3.org/2000/svg" width="240" height="240" viewBox="0 0 240 240" fill="none" role="img" aria-labelledby="title desc">
<title id="title">MarkePublish — senha segura</title><desc id="desc">Campo de senha mascarada protegido por cadeado e selo de segurança.</desc><defs>
  <linearGradient id="brand" x1="35" y1="38" x2="205" y2="207" gradientUnits="userSpaceOnUse">
    <stop stop-color="#22E8CF"/><stop offset=".55" stop-color="#09C7C4"/><stop offset="1" stop-color="#028CB6"/>
  </linearGradient>
  <linearGradient id="soft" x1="51" y1="49" x2="190" y2="194" gradientUnits="userSpaceOnUse">
    <stop stop-color="#D9FFF8"/><stop offset="1" stop-color="#74E5DD"/>
  </linearGradient>
  <linearGradient id="deep" x1="55" y1="42" x2="190" y2="207" gradientUnits="userSpaceOnUse">
    <stop stop-color="#0C7386"/><stop offset="1" stop-color="#074656"/>
  </linearGradient>
</defs>
<g id="secure-password">
  <path d="M75 99V73c0-30 20-51 46-51s46 21 46 51v26" stroke="url(#brand)" stroke-width="16" stroke-linecap="round"/>
  <rect x="47" y="83" width="148" height="123" rx="28" fill="url(#deep)" stroke="#12D2C7" stroke-width="6"/>
  <rect x="64" y="105" width="114" height="49" rx="16" fill="#CFFFF7"/>
  <g fill="#078197"><circle cx="84" cy="129" r="6"/><circle cx="103" cy="129" r="6"/><circle cx="122" cy="129" r="6"/><circle cx="141" cy="129" r="6"/></g>
  <path d="M87 177h67" stroke="#69EADF" stroke-width="7" stroke-linecap="round"/>
  <circle cx="177" cy="178" r="30" fill="url(#brand)" stroke="#E2FFFA" stroke-width="5"/>
  <path d="m162 178 10 10 21-26" stroke="#063F4D" stroke-width="8" stroke-linecap="round" stroke-linejoin="round"/>
</g>
<path d="M31 77h18m-9-9v18" stroke="#13D2C6" stroke-width="5" stroke-linecap="round"/><rect x="26" y="177" width="14" height="14" rx="4" transform="rotate(28 26 177)" fill="#058FAD"/></svg>
